<?xml version="1.0" encoding="UTF-8" standalone="no"?>
<svg
   xmlns:dc="http://purl.org/dc/elements/1.1/"
   xmlns:cc="http://creativecommons.org/ns#"
   xmlns:rdf="http://www.w3.org/1999/02/22-rdf-syntax-ns#"
   xmlns:svg="http://www.w3.org/2000/svg"
   xmlns="http://www.w3.org/2000/svg"
   xmlns:sodipodi="http://sodipodi.sourceforge.net/DTD/sodipodi-0.dtd"
   xmlns:inkscape="http://www.inkscape.org/namespaces/inkscape"
   viewBox="0 0 698 505"
   version="1.1"
   id="svg12"
   sodipodi:docname="logo.svg"
   width="698"
   height="505"
   inkscape:version="0.92.1 r15371">
  <metadata
     id="metadata18">
    <rdf:RDF>
      <cc:Work
         rdf:about="">
        <dc:format>image/svg+xml</dc:format>
        <dc:type
           rdf:resource="http://purl.org/dc/dcmitype/StillImage" />
        <dc:title />
      </cc:Work>
    </rdf:RDF>
  </metadata>
  <defs
     id="defs16" />
  <sodipodi:namedview
     pagecolor="#ffffff"
     bordercolor="#666666"
     borderopacity="1"
     objecttolerance="10"
     gridtolerance="10"
     guidetolerance="10"
     inkscape:pageopacity="0"
     inkscape:pageshadow="2"
     inkscape:window-width="1920"
     inkscape:window-height="1017"
     id="namedview14"
     showgrid="false"
     fit-margin-top="0"
     fit-margin-left="0"
     fit-margin-right="0"
     fit-margin-bottom="0"
     inkscape:zoom="0.98333333"
     inkscape:cx="179.22694"
     inkscape:cy="225.51053"
     inkscape:window-x="-8"
     inkscape:window-y="-8"
     inkscape:window-maximized="1"
     inkscape:current-layer="g10"
     showguides="true"
     inkscape:guide-bbox="true">
    <sodipodi:guide
       position="421.89556,64.86115"
       orientation="0,1"
       id="guide4514"
       inkscape:locked="false" />
    <sodipodi:guide
       position="348.81356,437.28814"
       orientation="1,0"
       id="guide4518"
       inkscape:locked="false" />
  </sodipodi:namedview>
  <g
     id="g10"
     style="stroke-width:0"
     transform="translate(21,5.0000005)">
    <rect
       x="-21"
       y="37.711864"
       width="545.45764"
       height="462.28815"
       id="rect2"
       style="fill:none;stroke:#326cd2;stroke-width:0" />
    <path
       inkscape:connector-curvature="0"
       style="fill:#ffffff;fill-opacity:1;stroke:none"
       id="path6"
       d="m 366.25291,37.273167 -78.96359,42.787807 c 37.81947,74.408166 57.1563,139.149306 142.3228,184.277556 48.03544,53.94892 81.23718,121.27081 70.42288,132.10168 -14.34811,14.38053 -35.49803,26.95059 -28.08994,33.10016 l 4.78101,5.59848 c 12.56543,-1.2617 28.53403,-6.48251 57.01199,-19.7556 29.37499,-18.87658 37.0782,-27.72481 48.00476,-38.06419 l -3.64309,-7.76263 c -4.83384,-10.2977 -15.12576,-2.62207 -43.71063,6.95901 -18.38906,6.16377 -61.23797,-68.0129 -80.74233,-130.5265 4.65162,-88.19499 -56.6371,-154.797134 -87.39509,-208.72062 l -2e-5,-1.06e-4 z" />
    <path
       inkscape:connector-curvature="0"
       style="fill:#ffffff;fill-opacity:1;stroke:none;stroke-width:0"
       id="path6-3"
       d="m 287.93302,37.273168 78.96359,42.787806 c -37.81947,74.408176 -57.1563,139.149306 -142.3228,184.277556 -48.03544,53.94892 -81.23718,121.27081 -70.42288,132.10168 14.34811,14.38053 35.49803,26.95059 28.08994,33.10016 l -4.78101,5.59848 c -12.56543,-1.2617 -28.53403,-6.48251 -57.01199,-19.7556 -29.37499,-18.87658 -37.0782,-27.72481 -48.004759,-38.06419 l 3.64309,-7.76263 c 4.833839,-10.2977 15.125759,-2.62207 43.710629,6.95901 18.38906,6.16377 61.23797,-68.01291 80.74233,-130.5265 -4.65162,-88.19499 56.6371,-154.797133 87.39509,-208.720618 l 2e-5,-1.06e-4 z" />
    <rect
       style="fill:#ffffff;fill-opacity:1;fill-rule:nonzero;stroke:none;stroke-width:9.87130356;stroke-miterlimit:4;stroke-dasharray:none;stroke-opacity:1"
       id="rect4520"
       width="290.61005"
       height="12.982927"
       x="180.98312"
       y="306.38989"
       ry="1.9973736" />
  </g>
</svg>
